<svg xmlns="http://www.w3.org/2000/svg" viewBox="0 0 457.62 349.5"><title>icon-play</title><path d="M440.71,82.49s-4.19-31.85-17.21-45.81C407,18.31,388.62,18.2,380.13,17.15,319.56,12.5,228.75,12.5,228.75,12.5h-.23s-90.8,0-151.38,4.65c-8.48,1.05-26.85,1.16-43.36,19.53C20.87,50.75,16.57,82.49,16.57,82.49s-4.07,37.32-4.07,74.64v35a747.32,747.32,0,0,0,4.3,74.64S21,298.63,34,312.58C50.52,331,72,330.37,81.68,332.35c34.65,3.48,147.07,4.65,147.07,4.65s90.92-.12,151.5-4.77c8.49-1.05,26.86-1.16,43.37-19.53,12.9-13.95,17.2-45.81,17.2-45.81a747.32,747.32,0,0,0,4.3-74.64v-35C445,119.81,440.71,82.49,440.71,82.49Z" fill="#63d1bb" stroke="#fff" stroke-miterlimit="10" stroke-width="25"/><polygon points="174.69 93.54 174.69 255.84 309.91 174.69 174.69 93.54" fill="#fff"/></svg>